<svg xmlns="http://www.w3.org/2000/svg" width="64" height="64" fill="none"><rect width="64" height="64" fill="#141417" rx="8"/><path fill="#fff" d="m8.69 46.765-.686-.552c-.054-.508.448-.623.651-.943.334-.524 1-.803 1.439-1.265 1.235-1.294.902-1.138 2.118-2.255 2.223-2.047 1.493-1.194 3.659-3.26.686-.654 2.614-2.348 3.595-3.07 2.064-1.523 2.585-2.485 5.136-4.262 1.902-1.327 2.906-2.738 5.662-4.717 1.045-.75 2.57-2.68 3.49-1.374 1.643 2.326.957 1.244 1.789 2.692 1.083 1.88.895 1.433 1.575 2.596 2.144 3.663 4.637 1.517 5.945.043 1.27-1.43 1.22-1.724 2.818-4.056 2.156-3.151 2.896-3.384 5.068-6.715 2.82-4.32 3.936-4.531 3.936-1.948 0 2.106-.01 5.363-.039 7.214-.047 3.102.105 14.407.14 15.756.05 1.97-.054 5.887-.054 5.887-.994.18-1.944.41-3.21.27-.452-.05-.82.043-1.297.028-.673-.022-1.359 0-2.058 0-.711 0-1.52.099-2.255.08-1.34-.03-3.042-.115-4.414-.084-2.293.05-4.675-.378-6.863-.353-.985.01-2.341.54-3.341.52-.82-.015-2.017.01-2.887 0-.772-.008-1.693-.163-2.5-.16-4.065.018-8.207-.156-12.24-.193-1.718-.015-3.472-.062-5.18.127z"/></svg>